<?xml version="1.0" encoding="UTF-8" standalone="no"?>
<!-- Uploaded to: SVG Repo, www.svgrepo.com, Generator: SVG Repo Mixer Tools -->

<svg
   version="1.1"
   id="Uploaded to svgrepo.com"
   width="800px"
   height="800px"
   viewBox="0 0 32 32"
   xml:space="preserve"
   sodipodi:docname="work-svgrepo-com-white.svg"
   inkscape:version="1.1.2 (b8e25be8, 2022-02-05)"
   xmlns:inkscape="http://www.inkscape.org/namespaces/inkscape"
   xmlns:sodipodi="http://sodipodi.sourceforge.net/DTD/sodipodi-0.dtd"
   xmlns="http://www.w3.org/2000/svg"
   xmlns:svg="http://www.w3.org/2000/svg"><defs
   id="defs835" /><sodipodi:namedview
   id="namedview833"
   pagecolor="#ffffff"
   bordercolor="#666666"
   borderopacity="1.0"
   inkscape:pageshadow="2"
   inkscape:pageopacity="0.0"
   inkscape:pagecheckerboard="0"
   showgrid="false"
   inkscape:zoom="0.93125"
   inkscape:cx="583.08725"
   inkscape:cy="488.05369"
   inkscape:window-width="2560"
   inkscape:window-height="1051"
   inkscape:window-x="0"
   inkscape:window-y="25"
   inkscape:window-maximized="0"
   inkscape:current-layer="g830" />
<style
   type="text/css"
   id="style824">
	.duotone_twee{fill:#555D5E;}
	.duotone_een{fill:#0B1719;}
	.st0{fill:none;}
</style>
<g
   id="g830">
	
	<g
   id="g913"
   transform="matrix(1.3257271,0,0,1.2203677,-5.2116331,-3.6360665)"
   style="stroke-width:0.78619"><path
     class="duotone_twee"
     d="m 12,21 h 8 v 1 H 12 Z M 27.5,10 H 4.5 C 4.225,10 4,10.205 4,10.48 V 21 h 7 V 20.5 C 11,20.224 11.224,20 11.5,20 h 9 c 0.276,0 0.5,0.224 0.5,0.5 V 21 h 7 V 10.48 C 28,10.205 27.775,10 27.5,10 Z"
     id="path826"
     style="fill:#ffffff;fill-opacity:1;stroke-width:0.78619" /><path
     class="duotone_een"
     d="m 28,22 v 5.492 C 28,27.767 27.775,28 27.5,28 H 4.5 C 4.225,28 4,27.767 4,27.492 V 22 h 7 v 0.5 c 0,0.276 0.224,0.5 0.5,0.5 h 9 C 20.776,23 21,22.776 21,22.5 V 22 Z M 19.5,5 h -7 C 10.156,5 8,5.758 8,9.996 h 2 C 10,6.977 11.146,7 12.5,7 h 7 C 20.854,7 22,6.977 22,9.996 h 2 C 24,5.758 21.844,5 19.5,5 Z"
     id="path828"
     style="fill:#ffffff;fill-opacity:1;stroke-width:0.78619" /></g>
</g>
</svg>
