<?xml version="1.0" encoding="UTF-8" standalone="no"?>
<svg
   width="800"
   height="800"
   viewBox="0 0 800 800"
   fill="none"
   version="1.1"
   id="svg828"
   sodipodi:docname="railway_logo.svg"
   inkscape:version="1.1.2 (b8e25be8, 2022-02-05)"
   xmlns:inkscape="http://www.inkscape.org/namespaces/inkscape"
   xmlns:sodipodi="http://sodipodi.sourceforge.net/DTD/sodipodi-0.dtd"
   xmlns="http://www.w3.org/2000/svg"
   xmlns:svg="http://www.w3.org/2000/svg">
  <defs
     id="defs832" />
  <sodipodi:namedview
     id="namedview830"
     pagecolor="#ffffff"
     bordercolor="#666666"
     borderopacity="1.0"
     inkscape:pageshadow="2"
     inkscape:pageopacity="0.0"
     inkscape:pagecheckerboard="0"
     showgrid="false"
     inkscape:zoom="0.72753906"
     inkscape:cx="1045.3047"
     inkscape:cy="310.63624"
     inkscape:window-width="2541"
     inkscape:window-height="1330"
     inkscape:window-x="0"
     inkscape:window-y="25"
     inkscape:window-maximized="0"
     inkscape:current-layer="g1864" />
  <g
     id="g1864"
     transform="translate(-916.14995,-86.593292)">
    <g
       id="g3030"
       transform="translate(-912.66564,-149.82016)">
      <path
         style="fill:#ffffff;fill-opacity:1;stroke:none;stroke-width:1px;stroke-linecap:butt;stroke-linejoin:miter;stroke-opacity:1"
         d="m 1879.8717,440.02709 c -41.5832,69.05214 -79.7281,200.65256 -15.8531,362.24149 63.875,161.58893 712.3175,40.17984 728.3594,0 0,0 8.0209,-20.08992 16.0419,-40.17984 8.021,-20.08992 -499.7673,-701.970132 -728.5482,-322.06165 z"
         id="path2011"
         sodipodi:nodetypes="szsss" />
      <path
         d="m 1832.5664,578.74074 a 406.78519,406.78519 0 0 0 -3.7154,40.27908 h 607.6228 c -2.1217,-4.14509 -4.9723,-7.88238 -7.8472,-11.54 -103.8772,-134.20451 -159.7555,-122.56842 -239.6895,-125.97761 -26.6501,-1.09604 -44.7233,-1.53664 -150.802,-1.53664 -56.7759,0 -118.4999,0.14453 -178.6061,0.30467 -7.7808,21.002 -15.2851,41.35872 -18.9388,57.91877 h 311.3669 v 40.55173 z m 608.697,80.87144 h -612.1007 c 0.6406,10.82051 1.6499,21.4965 3.1076,32.02874 h 565.1181 c 25.1924,0 39.294,-14.29376 43.8742,-32.02874 z m -577.2448,142.6564 c 0,0 93.6856,230.03772 364.3891,234.12342 161.7975,0 300.8205,-96.09333 363.9703,-234.12342 z"
         fill="#100f13"
         id="path824"
         style="stroke:#000000;stroke-width:1.28007;stroke-opacity:1" />
      <path
         d="m 2228.403,236.4349 c -149.6021,0 -279.7842,82.15184 -348.5313,203.59219 53.7245,-0.11249 158.354,-0.17655 158.354,-0.17655 h 0.024 v -0.0398 c 123.6723,0 128.2689,0.55231 152.4278,1.56085 l 14.9593,0.55153 c 52.1066,1.73741 116.1524,7.33086 166.5458,45.4585 27.354,20.67936 66.8487,66.32144 90.392,98.83844 21.7652,30.07573 28.0266,64.64966 13.2282,97.77444 -13.6212,30.44368 -42.929,48.60286 -78.42,48.60286 h -555.4936 c 0,0 3.3068,14.018 8.2651,29.49138 h 758.2656 a 398.71687,398.71687 0 0 0 20.3879,-125.50498 c 0.01,-220.97485 -179.2622,-400.14882 -400.405,-400.14882 z"
         fill="#100f13"
         id="path826"
         style="stroke:#000000;stroke-width:1.28007;stroke-opacity:1" />
    </g>
  </g>
</svg>
